<?xml version="1.0" encoding="UTF-8" standalone="no"?>
<!-- Uploaded to: SVG Repo, www.svgrepo.com, Generator: SVG Repo Mixer Tools -->

<svg
   fill="#000000"
   height="137.66748"
   width="156.95717"
   version="1.1"
   id="Capa_1"
   viewBox="0 0 156.95717 137.66748"
   xml:space="preserve"
   sodipodi:docname="smplcmts.svg"
   inkscape:version="1.4 (e7c3feb100, 2024-10-09)"
   xmlns:inkscape="http://www.inkscape.org/namespaces/inkscape"
   xmlns:sodipodi="http://sodipodi.sourceforge.net/DTD/sodipodi-0.dtd"
   xmlns="http://www.w3.org/2000/svg"
   xmlns:svg="http://www.w3.org/2000/svg"><defs
   id="defs1" /><sodipodi:namedview
   id="namedview1"
   pagecolor="#ffffff"
   bordercolor="#999999"
   borderopacity="1"
   inkscape:showpageshadow="0"
   inkscape:pageopacity="0"
   inkscape:pagecheckerboard="0"
   inkscape:deskcolor="#d1d1d1"
   inkscape:zoom="1.1067669"
   inkscape:cx="436.40625"
   inkscape:cy="361.41304"
   inkscape:window-width="1920"
   inkscape:window-height="1080"
   inkscape:window-x="0"
   inkscape:window-y="0"
   inkscape:window-maximized="1"
   inkscape:current-layer="g1" />
<g
   id="g1"
   transform="translate(39.145083,29.500239)">
	<path
   d="m -20.210542,108.16724 c -2.978849,0 -5.871903,-0.47885 -8.597359,-1.42259 l -6.211088,-2.14884 4.772541,-4.51915 c 6.314839,-5.97964 7.909012,-12.879075 8.012763,-18.048664 -10.917788,-12.102942 -16.911398,-27.204685 -16.911398,-42.693498 0,-37.9548757 35.2054761,-68.834737 78.477585,-68.834737 43.27211,0 78.479578,30.8798613 78.479578,68.834737 0,37.95288 -35.207468,68.830742 -78.479578,68.830742 -12.885064,0 -25.592555,-2.79129 -36.9213562,-8.09456 -4.2677537,3.02075 -12.8930458,8.09656 -22.6216878,8.09656 z M 1.4793828,90.699178 C -33.017774,68.556543 14.169789,99.058029 -14.266813,80.330073 c 0.173584,5.42697 -0.800079,12.783308 -5.622501,19.854327 9.237821,-0.14764 17.7374151,-6.580197 19.36351101,-7.881074 z"
   id="path1"
   sodipodi:nodetypes="sccccsssscscccsc"
   style="stroke-width:1.99521" />
</g>
</svg>
